<svg width="26" height="24" viewBox="0 0 26 24" fill="none" xmlns="http://www.w3.org/2000/svg">
<path fill-rule="evenodd" clip-rule="evenodd" d="M16.431 0.547789C17.3245 0.160119 18.2845 -0.0261067 19.2515 0.00322722C20.2184 0.0325601 21.1665 0.276652 22.0374 0.71713C22.9076 1.15726 23.68 1.78296 24.3106 2.5511C26.8405 5.6197 26.4109 10.3056 23.8142 13.1522L23.8125 13.154L14.4368 23.38L13.6996 22.7041L14.4335 23.3835C14.0785 23.767 13.5797 24.0002 13.0399 24.0002C12.5001 24.0002 12.0013 23.767 11.6463 23.3835L11.6431 23.38L2.02427 12.8889C1.35461 12.158 0.832743 11.2904 0.48681 10.342C0.140901 9.39356 -0.0232599 8.3808 0.00265199 7.36472C0.0285639 6.34864 0.244109 5.34672 0.638319 4.41957C1.03241 3.49272 1.59804 2.65724 2.30497 1.96679C5.18795 -0.860732 9.62203 -0.352917 12.259 2.50881L12.2632 2.51343L13.0403 3.36745L14.06 2.24794L14.0625 2.24526C14.7328 1.51465 15.5378 0.935316 16.431 0.547789ZM13.0399 21.9441L22.3366 11.8042L22.3376 11.8032C24.3465 9.60003 24.588 6.03087 22.7669 3.8227L22.7654 3.82087C22.3047 3.25957 21.7488 2.81242 21.1347 2.50182C20.5209 2.19139 19.8597 2.0226 19.1908 2.00231C18.5219 1.98202 17.8541 2.11046 17.227 2.38253C16.6001 2.65453 16.0243 3.06573 15.5373 3.59614L15.5361 3.59739L13.7792 5.52629C16.431 14.5 13.3214 21.9441 13.0399 21.9441C12.7584 21.944 12.4897 5.73411 12.3003 5.5259L10.7861 3.86185C8.79329 1.70132 5.65945 1.47753 3.70476 3.39528L3.70304 3.39697C3.19109 3.89682 2.77308 4.51016 2.47886 5.20215C2.1846 5.89422 2.02159 6.64762 2.002 7.41571C1.98241 8.18381 2.10676 8.94661 2.36574 9.65666C2.62465 10.3665 3.0115 11.0057 3.49845 11.5373L13.0399 21.9441Z" fill="#92000E"/>
<path d="M18.1277 3.56445C18.0602 3.73334 17.8848 3.77896 17.758 3.8946C17.5177 4.11368 17.4856 4.62628 17.441 4.91148C17.1941 6.4921 17.1633 8.11178 17.0316 9.70533C16.9492 10.7025 16.7323 11.6895 16.7015 12.6899C16.6792 13.4133 16.3336 14.0693 16.1798 14.7699C16.0807 15.2214 15.8501 15.5362 15.744 15.9783C15.6692 16.2901 15.3024 16.4582 15.2752 16.7574C15.2057 17.522 14.8311 18.8962 14.0272 19.2534C13.5378 19.4709 14.079 20.4302 13.7301 20.7985C13.3373 21.2132 13.3125 21.9434 12.5415 21.5579C12.1493 21.3618 12.016 20.9049 11.7095 20.6202C11.3469 20.2835 11.0497 19.8754 10.8247 19.4383C10.2284 18.2798 9.22965 17.5015 8.50703 16.4537C8.04816 15.7883 7.72311 14.1272 6.84305 14.0172C6.4066 13.9626 6.13694 13.3136 5.92522 13.0003C5.51114 12.3874 4.96376 11.9029 4.57819 11.2637C3.49298 9.46449 1.84767 7.95937 2.41237 5.63782C2.65638 4.63468 3.61454 4.22706 4.3867 3.68991C5.27485 3.07206 6.52949 3.11428 7.61562 3.08902C8.81578 3.06111 10.1965 3.63221 11.1153 4.40964C12.063 5.21157 12.628 5.91464 12.8981 7.13012" stroke="#92000E" stroke-width="2" stroke-linecap="round"/>
<path d="M6.24217 4.03987C4.6779 5.3046 3.76018 6.38041 3.3302 8.3583C3.15589 9.16013 3.15192 9.99075 3.15192 10.8147" stroke="#92000E" stroke-width="2" stroke-linecap="round"/>
<path d="M2.43878 8.31868C2.81505 9.28025 3.53422 10.3967 4.45933 10.9071C5.67564 11.5782 6.42545 12.5869 7.1666 13.7398C8.36258 15.6002 9.75767 17.3597 11.1681 19.0619C11.4159 19.361 12.5766 21.0386 12.8056 19.9665C13.4009 17.1806 12.7933 14.2594 12.9245 11.4485C12.9744 10.3789 13.0302 9.20076 12.6604 8.17341C12.3837 7.40496 11.8463 6.68834 11.4058 6.00759C10.4773 4.57271 8.99394 3.39644 7.30527 4.40964C6.02448 5.17811 4.99625 6.47162 4.84231 8.02814C4.70774 9.38882 5.7211 10.3003 6.55251 11.2372C7.57626 12.391 8.52794 13.4336 9.38524 14.7237C9.96594 15.5975 10.5442 16.4821 10.97 17.4442C11.0633 17.6549 11.5233 18.6915 11.5445 18.6459C12.0156 17.6311 11.9042 16.0555 11.9142 14.9878C11.9289 13.4185 11.8333 11.8222 11.5643 10.2732C11.3156 8.84132 10.66 7.55197 9.97952 6.28492C9.52526 5.43906 9.30373 4.71281 8.29573 5.27465C7.42597 5.75943 6.6154 6.64577 6.744 7.69798C6.98322 9.6552 8.51639 10.9584 9.64936 12.4588C10.1235 13.0867 10.4879 13.6975 10.6861 14.4596C10.728 14.6209 10.9647 15.4558 10.97 14.7237C10.9805 13.2787 10.52 11.825 10.1512 10.4449C9.92115 9.58396 9.73756 8.6759 9.45127 7.83005C9.28187 7.32954 8.70175 7.06879 8.28252 6.83298C8.16071 6.76446 8.14386 6.6496 8.14386 6.85279C8.14386 7.74416 8.00802 8.59452 7.84012 9.46762C7.59238 10.7558 8.29103 10.5333 8.96925 9.73174C9.42022 9.19877 9.85014 8.68514 10.3493 8.19322C10.6758 7.8714 11.2763 7.43874 11.4388 6.97825C11.5211 6.74512 9.88267 5.71882 9.58333 5.70385C8.43966 5.64667 7.40823 6.95791 7.34488 8.03474C7.31526 8.53832 8.53302 8.31868 8.85699 8.31868" stroke="#92000E" stroke-width="2" stroke-linecap="round"/>
<path d="M14.0867 7.60555C14.4316 6.70861 14.5729 5.90085 15.0639 5.06996C15.4959 4.33889 16.3441 3.62967 17.0052 3.11544C17.5388 2.70045 18.0243 2.61361 18.6824 2.61361C19.337 2.61361 20.1584 2.34592 20.769 2.69284C21.7047 3.22451 22.5843 3.78073 23.3046 4.60774C24.0578 5.4725 23.8131 6.34748 23.5291 7.34142C22.8233 9.81174 21.1378 12.044 19.554 14.0238C18.429 15.43 17.0764 16.6607 16.1072 18.1837C15.8365 18.6091 15.4928 18.9291 15.1696 19.3062C14.6284 19.9376 16.4187 18.1802 16.8732 17.4838C18.2808 15.3269 19.5533 13.1405 20.5049 10.7486C20.9787 9.55777 21.7942 8.19483 21.8123 6.89241C21.8274 5.80672 21.6887 3.70866 20.32 3.68331C19.7793 3.6733 19.4267 3.50276 18.9135 3.78896C18.002 4.2973 17.3625 5.01508 16.7015 5.7963C15.9672 6.66407 14.9899 7.61141 14.5621 8.67525C13.8256 10.5065 14.1255 12.6722 13.8489 14.5916C13.8039 14.9043 13.4843 16.7304 13.8159 15.4038C14.1892 13.9109 14.2679 12.2179 14.9715 10.8279C15.5162 9.75177 16.2756 8.80758 16.7939 7.7112C17.0995 7.06474 17.2404 6.43585 17.441 5.75668C17.4729 5.64896 18.2283 3.79101 18.5768 4.44927C18.7065 4.69424 19.2933 5.82131 18.722 5.94157C18.3373 6.02256 17.8116 6.01425 18.1013 6.53585C18.612 7.45505 18.4036 8.78508 18.273 9.77137C18.1675 10.5685 16.2428 15.3166 15.2488 14.3935C14.3832 13.5898 14.9369 11.4407 15.7242 10.6826C15.8282 10.5825 15.8511 12.1272 16.609 11.3363C17.271 10.6456 17.6634 9.78399 18.1278 8.96579C18.6827 7.98794 19.5735 9.77955 19.5276 10.2996C19.3941 11.8132 18.5591 12.5532 17.6787 13.6012C17.5765 13.7229 17.4931 13.9018 17.3618 13.9973C17.3286 14.0215 17.1901 14.0167 17.1901 14.0766C17.1901 14.2017 17.3606 13.8916 17.4278 13.786C17.8887 13.0618 18.3075 12.3113 18.7352 11.5674C19.3636 10.4746 20.2773 9.58924 20.8945 8.49036C21.1644 8.00967 21.713 6.91113 21.3765 6.33775C21.2893 6.18926 20.0208 4.69836 20.003 4.7398C19.616 5.64278 19.0803 7.60902 19.554 8.5564" stroke="#92000E" stroke-width="2" stroke-linecap="round"/>
</svg>
